<svg xmlns="http://www.w3.org/2000/svg" width="880" height="422" viewBox="0 0 880 422" role="img" aria-label="Terminal running neofetch for rudra@github. Name: Rudra Somaiya. Role: AI Software Engineer Intern at AiGENThix. Studying: B.Tech CSE, Vijaybhoomi University. Focus: LLMs and RAG, computer vision, MLOps. Stack: Python, PyTorch, FastAPI, Docker, AWS. Favourites: shinobi-battle, sketch-to-photo. Off-hours: drones and RC aircraft.">
<style>text{font-family:'JetBrains Mono','Cascadia Code','Fira Code',Consolas,'SFMono-Regular',Menlo,'DejaVu Sans Mono',monospace;font-size:15px}@keyframes show{from{opacity:0}to{opacity:1}}@keyframes gone{from{opacity:.75}to{opacity:0}}@keyframes type{from{transform:scaleX(0)}to{transform:scaleX(1)}}@keyframes blink{0%{opacity:1}50%{opacity:0}}@keyframes rise{from{opacity:0;transform:translateY(6px)}to{opacity:1;transform:translateY(0)}}@keyframes pop{from{opacity:0}to{opacity:1}}.type{transform-box:fill-box;transform-origin:left;animation:type 0.56s steps(8) 0.5s both}.ride{animation:ride 0.56s steps(8) 0.5s both,gone 0s 1.26s both}@keyframes ride{from{transform:translateX(0)}to{transform:translateX(72.0px)}}.art{animation:show .3s 1.41s both}.c0{animation:pop .25s 1.41s both}.c1{animation:pop .25s 1.45s both}.c2{animation:pop .25s 1.49s both}.c3{animation:pop .25s 1.53s both}.c4{animation:pop .25s 1.57s both}.c5{animation:pop .25s 1.61s both}.c6{animation:pop .25s 1.65s both}.c7{animation:pop .25s 1.69s both}.c8{animation:pop .25s 1.73s both}.c9{animation:pop .25s 1.77s both}.c10{animation:pop .25s 1.81s both}.c11{animation:pop .25s 1.85s both}.c12{animation:pop .25s 1.89s both}.c13{animation:pop .25s 1.93s both}.c14{animation:pop .25s 1.97s both}.i0{animation:rise .3s 1.51s both}.i1{animation:rise .3s 1.60s both}.i2{animation:rise .3s 1.69s both}.i3{animation:rise .3s 1.78s both}.i4{animation:rise .3s 1.87s both}.i5{animation:rise .3s 1.96s both}.i6{animation:rise .3s 2.05s both}.i7{animation:rise .3s 2.14s both}.i8{animation:rise .3s 2.23s both}.blocks{animation:rise .3s 2.32s both}.last{animation:show 0s 2.62s both}.blink{animation:blink 1.1s steps(1) 2.62s infinite}</style>
<rect x=".5" y=".5" width="879" height="421" rx="10" fill="#ffffff" stroke="#d0d7de"/>
<path d="M.5 10.5a10 10 0 0 1 10-10h859a10 10 0 0 1 10 10v28h-879z" fill="#f6f8fa"/>
<line x1=".5" y1="38.5" x2="879.5" y2="38.5" stroke="#d0d7de"/>
<circle cx="22" cy="19.0" r="6" fill="#ff5f57"/><circle cx="42" cy="19.0" r="6" fill="#febc2e"/><circle cx="62" cy="19.0" r="6" fill="#28c840"/>
<text x="440.0" y="24.0" fill="#59636e" text-anchor="middle" style="font-size:13px">rudra@github: ~</text>
<text x="28.0" y="78" fill="#1a7f37" textLength="45.0" lengthAdjust="spacingAndGlyphs" xml:space="preserve">rudra</text><text x="73.0" y="78" fill="#59636e" textLength="9.0" lengthAdjust="spacingAndGlyphs" xml:space="preserve">@</text><text x="82.0" y="78" fill="#1a7f37" textLength="54.0" lengthAdjust="spacingAndGlyphs" xml:space="preserve">github</text><text x="136.0" y="78" fill="#59636e" textLength="9.0" lengthAdjust="spacingAndGlyphs" xml:space="preserve">:</text><text x="145.0" y="78" fill="#0969da" textLength="9.0" lengthAdjust="spacingAndGlyphs" xml:space="preserve">~</text><text x="154.0" y="78" fill="#59636e" textLength="18.0" lengthAdjust="spacingAndGlyphs" xml:space="preserve">$ </text><defs><clipPath id="cmd"><rect class="type" x="172.0" y="62" width="72.0" height="22"/></clipPath><linearGradient id="g" x1="0" y1="0" x2="1" y2="1"><stop offset="0" stop-color="#8250df"/><stop offset="1" stop-color="#0969da"/></linearGradient></defs><g clip-path="url(#cmd)"><text x="172.0" y="78" fill="#1f2328" textLength="72.0" lengthAdjust="spacingAndGlyphs" xml:space="preserve">neofetch</text></g><rect class="ride" x="172.0" y="65" width="9.0" height="17" fill="#1f2328" opacity=".75"/><g fill="#eaeef2" class="art"><rect x="39" y="156.5" width="16" height="16" rx="2"/><rect x="56" y="156.5" width="16" height="16" rx="2"/><rect x="73" y="156.5" width="16" height="16" rx="2"/><rect x="90" y="156.5" width="16" height="16" rx="2"/><rect x="107" y="156.5" width="16" height="16" rx="2"/><rect x="209" y="156.5" width="16" height="16" rx="2"/><rect x="226" y="156.5" width="16" height="16" rx="2"/><rect x="243" y="156.5" width="16" height="16" rx="2"/><rect x="260" y="156.5" width="16" height="16" rx="2"/><rect x="277" y="156.5" width="16" height="16" rx="2"/><rect x="39" y="173.5" width="16" height="16" rx="2"/><rect x="56" y="173.5" width="16" height="16" rx="2"/><rect x="107" y="173.5" width="16" height="16" rx="2"/><rect x="124" y="173.5" width="16" height="16" rx="2"/><rect x="192" y="173.5" width="16" height="16" rx="2"/><rect x="209" y="173.5" width="16" height="16" rx="2"/><rect x="39" y="190.5" width="16" height="16" rx="2"/><rect x="56" y="190.5" width="16" height="16" rx="2"/><rect x="107" y="190.5" width="16" height="16" rx="2"/><rect x="124" y="190.5" width="16" height="16" rx="2"/><rect x="192" y="190.5" width="16" height="16" rx="2"/><rect x="209" y="190.5" width="16" height="16" rx="2"/><rect x="39" y="207.5" width="16" height="16" rx="2"/><rect x="56" y="207.5" width="16" height="16" rx="2"/><rect x="73" y="207.5" width="16" height="16" rx="2"/><rect x="90" y="207.5" width="16" height="16" rx="2"/><rect x="107" y="207.5" width="16" height="16" rx="2"/><rect x="209" y="207.5" width="16" height="16" rx="2"/><rect x="226" y="207.5" width="16" height="16" rx="2"/><rect x="243" y="207.5" width="16" height="16" rx="2"/><rect x="260" y="207.5" width="16" height="16" rx="2"/><rect x="39" y="224.5" width="16" height="16" rx="2"/><rect x="56" y="224.5" width="16" height="16" rx="2"/><rect x="90" y="224.5" width="16" height="16" rx="2"/><rect x="107" y="224.5" width="16" height="16" rx="2"/><rect x="260" y="224.5" width="16" height="16" rx="2"/><rect x="277" y="224.5" width="16" height="16" rx="2"/><rect x="39" y="241.5" width="16" height="16" rx="2"/><rect x="56" y="241.5" width="16" height="16" rx="2"/><rect x="107" y="241.5" width="16" height="16" rx="2"/><rect x="124" y="241.5" width="16" height="16" rx="2"/><rect x="260" y="241.5" width="16" height="16" rx="2"/><rect x="277" y="241.5" width="16" height="16" rx="2"/><rect x="39" y="258.5" width="16" height="16" rx="2"/><rect x="56" y="258.5" width="16" height="16" rx="2"/><rect x="107" y="258.5" width="16" height="16" rx="2"/><rect x="124" y="258.5" width="16" height="16" rx="2"/><rect x="192" y="258.5" width="16" height="16" rx="2"/><rect x="209" y="258.5" width="16" height="16" rx="2"/><rect x="226" y="258.5" width="16" height="16" rx="2"/><rect x="243" y="258.5" width="16" height="16" rx="2"/><rect x="260" y="258.5" width="16" height="16" rx="2"/></g><g fill="url(#g)"><rect class="c0" x="36" y="153.5" width="16" height="16" rx="2"/><rect class="c1" x="53" y="153.5" width="16" height="16" rx="2"/><rect class="c2" x="70" y="153.5" width="16" height="16" rx="2"/><rect class="c3" x="87" y="153.5" width="16" height="16" rx="2"/><rect class="c4" x="104" y="153.5" width="16" height="16" rx="2"/><rect class="c10" x="206" y="153.5" width="16" height="16" rx="2"/><rect class="c11" x="223" y="153.5" width="16" height="16" rx="2"/><rect class="c12" x="240" y="153.5" width="16" height="16" rx="2"/><rect class="c13" x="257" y="153.5" width="16" height="16" rx="2"/><rect class="c14" x="274" y="153.5" width="16" height="16" rx="2"/><rect class="c0" x="36" y="170.5" width="16" height="16" rx="2"/><rect class="c1" x="53" y="170.5" width="16" height="16" rx="2"/><rect class="c4" x="104" y="170.5" width="16" height="16" rx="2"/><rect class="c5" x="121" y="170.5" width="16" height="16" rx="2"/><rect class="c9" x="189" y="170.5" width="16" height="16" rx="2"/><rect class="c10" x="206" y="170.5" width="16" height="16" rx="2"/><rect class="c0" x="36" y="187.5" width="16" height="16" rx="2"/><rect class="c1" x="53" y="187.5" width="16" height="16" rx="2"/><rect class="c4" x="104" y="187.5" width="16" height="16" rx="2"/><rect class="c5" x="121" y="187.5" width="16" height="16" rx="2"/><rect class="c9" x="189" y="187.5" width="16" height="16" rx="2"/><rect class="c10" x="206" y="187.5" width="16" height="16" rx="2"/><rect class="c0" x="36" y="204.5" width="16" height="16" rx="2"/><rect class="c1" x="53" y="204.5" width="16" height="16" rx="2"/><rect class="c2" x="70" y="204.5" width="16" height="16" rx="2"/><rect class="c3" x="87" y="204.5" width="16" height="16" rx="2"/><rect class="c4" x="104" y="204.5" width="16" height="16" rx="2"/><rect class="c10" x="206" y="204.5" width="16" height="16" rx="2"/><rect class="c11" x="223" y="204.5" width="16" height="16" rx="2"/><rect class="c12" x="240" y="204.5" width="16" height="16" rx="2"/><rect class="c13" x="257" y="204.5" width="16" height="16" rx="2"/><rect class="c0" x="36" y="221.5" width="16" height="16" rx="2"/><rect class="c1" x="53" y="221.5" width="16" height="16" rx="2"/><rect class="c3" x="87" y="221.5" width="16" height="16" rx="2"/><rect class="c4" x="104" y="221.5" width="16" height="16" rx="2"/><rect class="c13" x="257" y="221.5" width="16" height="16" rx="2"/><rect class="c14" x="274" y="221.5" width="16" height="16" rx="2"/><rect class="c0" x="36" y="238.5" width="16" height="16" rx="2"/><rect class="c1" x="53" y="238.5" width="16" height="16" rx="2"/><rect class="c4" x="104" y="238.5" width="16" height="16" rx="2"/><rect class="c5" x="121" y="238.5" width="16" height="16" rx="2"/><rect class="c13" x="257" y="238.5" width="16" height="16" rx="2"/><rect class="c14" x="274" y="238.5" width="16" height="16" rx="2"/><rect class="c0" x="36" y="255.5" width="16" height="16" rx="2"/><rect class="c1" x="53" y="255.5" width="16" height="16" rx="2"/><rect class="c4" x="104" y="255.5" width="16" height="16" rx="2"/><rect class="c5" x="121" y="255.5" width="16" height="16" rx="2"/><rect class="c9" x="189" y="255.5" width="16" height="16" rx="2"/><rect class="c10" x="206" y="255.5" width="16" height="16" rx="2"/><rect class="c11" x="223" y="255.5" width="16" height="16" rx="2"/><rect class="c12" x="240" y="255.5" width="16" height="16" rx="2"/><rect class="c13" x="257" y="255.5" width="16" height="16" rx="2"/></g><g class="i0"><text x="318.0" y="104" fill="#1a7f37" textLength="45.0" lengthAdjust="spacingAndGlyphs" xml:space="preserve">rudra</text><text x="363.0" y="104" fill="#59636e" textLength="9.0" lengthAdjust="spacingAndGlyphs" xml:space="preserve">@</text><text x="372.0" y="104" fill="#1a7f37" textLength="54.0" lengthAdjust="spacingAndGlyphs" xml:space="preserve">github</text></g><g class="i1"><text x="318.0" y="130" fill="#59636e" textLength="108.0" lengthAdjust="spacingAndGlyphs" xml:space="preserve">------------</text></g><g class="i2"><text x="318.0" y="156" fill="#8250df" textLength="36.0" lengthAdjust="spacingAndGlyphs" xml:space="preserve">Name</text><text x="354.0" y="156" fill="#59636e" textLength="72.0" lengthAdjust="spacingAndGlyphs" xml:space="preserve">:       </text><text x="426.0" y="156" fill="#1f2328" textLength="117.0" lengthAdjust="spacingAndGlyphs" xml:space="preserve">Rudra Somaiya</text></g><g class="i3"><text x="318.0" y="182" fill="#8250df" textLength="36.0" lengthAdjust="spacingAndGlyphs" xml:space="preserve">Role</text><text x="354.0" y="182" fill="#59636e" textLength="72.0" lengthAdjust="spacingAndGlyphs" xml:space="preserve">:       </text><text x="426.0" y="182" fill="#1f2328" textLength="351.0" lengthAdjust="spacingAndGlyphs" xml:space="preserve">AI Software Engineer Intern @ AiGENThix</text></g><g class="i4"><text x="318.0" y="208" fill="#8250df" textLength="72.0" lengthAdjust="spacingAndGlyphs" xml:space="preserve">Studying</text><text x="390.0" y="208" fill="#59636e" textLength="36.0" lengthAdjust="spacingAndGlyphs" xml:space="preserve">:   </text><text x="426.0" y="208" fill="#1f2328" textLength="306.0" lengthAdjust="spacingAndGlyphs" xml:space="preserve">B.Tech CSE, Vijaybhoomi University</text></g><g class="i5"><text x="318.0" y="234" fill="#8250df" textLength="45.0" lengthAdjust="spacingAndGlyphs" xml:space="preserve">Focus</text><text x="363.0" y="234" fill="#59636e" textLength="63.0" lengthAdjust="spacingAndGlyphs" xml:space="preserve">:      </text><text x="426.0" y="234" fill="#1f2328" textLength="324.0" lengthAdjust="spacingAndGlyphs" xml:space="preserve">LLMs and RAG, computer vision, MLOps</text></g><g class="i6"><text x="318.0" y="260" fill="#8250df" textLength="45.0" lengthAdjust="spacingAndGlyphs" xml:space="preserve">Stack</text><text x="363.0" y="260" fill="#59636e" textLength="63.0" lengthAdjust="spacingAndGlyphs" xml:space="preserve">:      </text><text x="426.0" y="260" fill="#1f2328" textLength="333.0" lengthAdjust="spacingAndGlyphs" xml:space="preserve">Python, PyTorch, FastAPI, Docker, AWS</text></g><g class="i7"><text x="318.0" y="286" fill="#8250df" textLength="90.0" lengthAdjust="spacingAndGlyphs" xml:space="preserve">Favourites</text><text x="408.0" y="286" fill="#59636e" textLength="18.0" lengthAdjust="spacingAndGlyphs" xml:space="preserve">: </text><text x="426.0" y="286" fill="#9a6700" textLength="279.0" lengthAdjust="spacingAndGlyphs" xml:space="preserve">shinobi-battle, sketch-to-photo</text></g><g class="i8"><text x="318.0" y="312" fill="#8250df" textLength="81.0" lengthAdjust="spacingAndGlyphs" xml:space="preserve">Off-hours</text><text x="399.0" y="312" fill="#59636e" textLength="27.0" lengthAdjust="spacingAndGlyphs" xml:space="preserve">:  </text><text x="426.0" y="312" fill="#1f2328" textLength="198.0" lengthAdjust="spacingAndGlyphs" xml:space="preserve">drones and RC aircraft</text></g><g class="blocks"><rect x="318" y="334" width="24" height="14" rx="2" fill="#cf222e"/><rect x="344" y="334" width="24" height="14" rx="2" fill="#9a6700"/><rect x="370" y="334" width="24" height="14" rx="2" fill="#1a7f37"/><rect x="396" y="334" width="24" height="14" rx="2" fill="#1b7c83"/><rect x="422" y="334" width="24" height="14" rx="2" fill="#0969da"/><rect x="448" y="334" width="24" height="14" rx="2" fill="#8250df"/><rect x="474" y="334" width="24" height="14" rx="2" fill="#1f2328"/><rect x="500" y="334" width="24" height="14" rx="2" fill="#8c959f"/></g><g class="last"><text x="28.0" y="390" fill="#1a7f37" textLength="45.0" lengthAdjust="spacingAndGlyphs" xml:space="preserve">rudra</text><text x="73.0" y="390" fill="#59636e" textLength="9.0" lengthAdjust="spacingAndGlyphs" xml:space="preserve">@</text><text x="82.0" y="390" fill="#1a7f37" textLength="54.0" lengthAdjust="spacingAndGlyphs" xml:space="preserve">github</text><text x="136.0" y="390" fill="#59636e" textLength="9.0" lengthAdjust="spacingAndGlyphs" xml:space="preserve">:</text><text x="145.0" y="390" fill="#0969da" textLength="9.0" lengthAdjust="spacingAndGlyphs" xml:space="preserve">~</text><text x="154.0" y="390" fill="#59636e" textLength="18.0" lengthAdjust="spacingAndGlyphs" xml:space="preserve">$ </text><rect class="blink" x="172.0" y="377" width="9.0" height="17" fill="#1f2328"/></g>
</svg>